<svg width="165" height="65" viewBox="0 0 165 65" fill="none" xmlns="http://www.w3.org/2000/svg">
<path d="M6 54L1.5 19.75V19H8.95L9.9 44H10.55L11.5 19H19V19.75L14.5 54H6Z" fill="#1B1B1B"/>
<path d="M32.35 54.5C30.75 54.5 29.35 54.1167 28.15 53.35C26.9833 52.55 26.0833 51.5 25.45 50.2C24.8167 48.8667 24.5 47.3833 24.5 45.75V40.85C24.5 39.25 24.8833 37.7833 25.65 36.45C26.45 35.1167 27.5167 34.0667 28.85 33.3C30.1833 32.5 31.65 32.1 33.25 32.1H34.6V25.7C34.6 25.3333 34.4667 25.0333 34.2 24.8C33.9333 24.5333 33.6167 24.4 33.25 24.4C32.9167 24.4 32.6167 24.5333 32.35 24.8C32.0833 25.0333 31.95 25.3333 31.95 25.7V30.8H24.5V27.25C24.5 25.6167 24.8833 24.15 25.65 22.85C26.45 21.5167 27.5167 20.4667 28.85 19.7C30.1833 18.9 31.65 18.5 33.25 18.5C34.8833 18.5 36.35 18.9 37.65 19.7C38.9833 20.4667 40.0333 21.5167 40.8 22.85C41.6 24.15 42 25.6167 42 27.25V54H36.75V52.25H36.25C35.9167 52.9833 35.3667 53.55 34.6 53.95C33.8333 54.3167 33.0833 54.5 32.35 54.5ZM33.25 47.55C33.6167 47.55 33.9333 47.4333 34.2 47.2C34.4667 46.9333 34.6 46.6167 34.6 46.25V39.1H33.25C32.9167 39.1 32.6167 39.2333 32.35 39.5C32.0833 39.7333 31.95 40.0333 31.95 40.4V46.25C31.95 46.6167 32.0833 46.9333 32.35 47.2C32.6167 47.4333 32.9167 47.55 33.25 47.55Z" fill="#1B1B1B"/>
<circle cx="52.5" cy="14.5" r="4.5" fill="#1DAAFC"/>
<path d="M52.5 11.125C52.9432 11.125 53.3821 11.2123 53.7916 11.3819C54.201 11.5515 54.5731 11.8001 54.8865 12.1135C55.1999 12.4269 55.4485 12.799 55.6181 13.2084C55.7877 13.6179 55.875 14.0568 55.875 14.5C55.875 14.9432 55.7877 15.3821 55.6181 15.7916C55.4485 16.201 55.1999 16.5731 54.8865 16.8865C54.5731 17.1999 54.201 17.4485 53.7916 17.6181C53.3821 17.7877 52.9432 17.875 52.5 17.875L52.5 14.5V11.125Z" fill="white"/>
<line x1="52" y1="22" x2="52" y2="55" stroke="#1B1B1B" stroke-width="8"/>
<path d="M70.25 54.5C68.65 54.5 67.1833 54.1167 65.85 53.35C64.5167 52.55 63.45 51.5 62.65 50.2C61.8833 48.8667 61.5 47.3833 61.5 45.75V41.75H68.95V46C68.95 46.3333 69.0667 46.65 69.3 46.95C69.5667 47.2167 69.8833 47.35 70.25 47.35C70.6167 47.35 70.9333 47.2167 71.2 46.95C71.4667 46.65 71.6 46.3333 71.6 46C71.6 45.7 71.5667 45.45 71.5 45.25C71.4333 45.0167 71.2833 44.7167 71.05 44.35L65.05 34.55C64.6167 33.8167 64.1167 33.05 63.55 32.25C62.9833 31.4167 62.5 30.6 62.1 29.8C61.7 28.9667 61.5 28.1833 61.5 27.45V27.25C61.5 25.6167 61.8833 24.15 62.65 22.85C63.45 21.5167 64.5167 20.4667 65.85 19.7C67.1833 18.9 68.65 18.5 70.25 18.5C71.8833 18.5 73.35 18.9 74.65 19.7C75.9833 20.4667 77.0333 21.5167 77.8 22.85C78.6 24.15 79 25.6167 79 27.25V30.8H71.6V26.95C71.6 26.5833 71.4667 26.2667 71.2 26C70.9333 25.7333 70.6167 25.6 70.25 25.6C69.9167 25.6 69.6167 25.7333 69.35 26C69.0833 26.2667 68.95 26.5833 68.95 26.95C68.95 27.1833 68.9833 27.3833 69.05 27.55C69.15 27.6833 69.2833 27.9 69.45 28.2L75.65 38.05C76.4167 39.2833 77.1667 40.5167 77.9 41.75C78.6333 42.95 79 44.2167 79 45.55V45.75C79 47.3833 78.6 48.8667 77.8 50.2C77.0333 51.5 75.9833 52.55 74.65 53.35C73.35 54.1167 71.8833 54.5 70.25 54.5Z" fill="#1B1B1B"/>
<path d="M84.5 54V19H91.95V32.75H94.6V19H102V54H94.6V40.25H91.95V54H84.5Z" fill="#1B1B1B"/>
<path d="M108.5 46.5H115.75V54.5H108.5V46.5Z" fill="#FC3E6B"/>
<path d="M131.25 54.5C129.65 54.5 128.183 54.1167 126.85 53.35C125.517 52.55 124.45 51.5 123.65 50.2C122.883 48.8667 122.5 47.3833 122.5 45.75V19H129.95V46.2C129.95 46.5667 130.083 46.8833 130.35 47.15C130.617 47.4167 130.917 47.55 131.25 47.55C131.617 47.55 131.933 47.4167 132.2 47.15C132.467 46.8833 132.6 46.5667 132.6 46.2V19H140V45.75C140 47.3833 139.6 48.8667 138.8 50.2C138.033 51.5 136.983 52.55 135.65 53.35C134.35 54.1167 132.883 54.5 131.25 54.5Z" fill="#1B1B1B"/>
<path d="M145.5 54V53.25L150.3 36.5L145.5 19.75V19H152.9L153.95 30.25H154.6L155.65 19H163V19.75L158.25 36.5L163 53.25V54H155.6L154.6 42.75H153.95L152.95 54H145.5Z" fill="#1B1B1B"/>
</svg>
